<svg width="7" height="7" viewBox="0 0 7 7" fill="none" xmlns="http://www.w3.org/2000/svg">
<path d="M0.68158 6.07606L5.21406 1.54358L5.39574 4.45362C5.39807 4.50518 5.41066 4.55704 5.43278 4.60618C5.45491 4.65532 5.48612 4.70075 5.5246 4.73983C5.56309 4.7789 5.60807 4.81084 5.65692 4.83377C5.70577 4.85671 5.75752 4.87018 5.80914 4.8734C5.86076 4.87663 5.91122 4.86954 5.95758 4.85255C6.00394 4.83556 6.04527 4.80901 6.07915 4.77445C6.11304 4.73989 6.1388 4.69801 6.15494 4.65126C6.17107 4.60451 6.17726 4.55382 6.17314 4.50215L5.93287 0.653627C5.92641 0.550541 5.87929 0.449125 5.80184 0.371682C5.7244 0.294239 5.62298 0.247109 5.5199 0.240658L1.67137 0.0003795C1.56956 -0.0042123 1.47502 0.0314536 1.40811 0.0996955C1.3412 0.167937 1.30727 0.263295 1.31363 0.365231C1.32 0.467166 1.36614 0.567524 1.44213 0.644687C1.51812 0.721851 1.61788 0.769648 1.71991 0.777783L4.62994 0.959467L0.0974654 5.49194C0.0291106 5.5603 -0.00567458 5.65662 0.00076268 5.75973C0.00719994 5.86284 0.054332 5.96428 0.13179 6.04173C0.209249 6.11919 0.310689 6.16632 0.413794 6.17276C0.5169 6.1792 0.613226 6.14441 0.68158 6.07606Z" fill="#EFEFEF"/>
</svg>
