<svg width="26" height="15" viewBox="0 0 26 15" fill="none" xmlns="http://www.w3.org/2000/svg">
<path d="M4.50309 0.753174L0.750183 4.50584Z" fill="black"/>
<path d="M0.750051 5.25708C0.446967 5.25639 0.173958 5.07383 0.0575904 4.79383C-0.0587766 4.51383 0.00443413 4.19137 0.217993 3.97621L3.97066 0.220496C4.26442 -0.0734986 4.74119 -0.0734986 5.03496 0.220496C5.32895 0.51449 5.32895 0.991024 5.03496 1.28479L1.27925 5.0377C1.13912 5.17829 0.948688 5.25732 0.750051 5.25708Z" fill="black"/>
<path d="M4.50309 8.27342L0.750183 4.52075Z" fill="black"/>
<path d="M4.50275 9.02492C4.30317 9.02561 4.11153 8.94658 3.97048 8.80529L0.217808 5.05262C-0.0675565 4.75816 -0.0642977 4.28908 0.225268 3.99883C0.514834 3.70834 0.98392 3.70367 1.27906 3.98811L5.03477 7.74078C5.32597 8.03593 5.32597 8.51017 5.03477 8.80531C4.89372 8.9466 4.70232 9.02561 4.50275 9.02492Z" fill="black"/>
<path d="M20.2299 15.0001H12.6225C12.2073 15.0001 11.8706 14.6634 11.8706 14.2484C11.8706 13.8332 12.2073 13.4965 12.6225 13.4965H20.2299C21.6736 13.4575 22.9913 12.6648 23.7021 11.4075C24.4127 10.1504 24.4127 8.61261 23.7021 7.35547C22.9913 6.09816 21.6736 5.30543 20.2299 5.26651H1.81185C1.39662 5.26651 1.06018 4.92986 1.06018 4.51461C1.06018 4.09961 1.3966 3.76294 1.81185 3.76294H20.2299C22.2063 3.80864 24.0132 4.88949 24.9884 6.60918C25.9636 8.32863 25.9636 10.4344 24.9884 12.1538C24.0132 13.8734 22.2063 14.9543 20.2299 15V15.0001Z" fill="black"/>
</svg>
