<svg width="11" height="9" viewBox="0 0 11 9" fill="none" xmlns="http://www.w3.org/2000/svg">
<path d="M0.500004 4.77916H9.29309L6.64656 7.59366C6.59881 7.64271 6.56072 7.70138 6.53451 7.76626C6.50831 7.83113 6.49451 7.90091 6.49394 7.97151C6.49336 8.04212 6.50601 8.11214 6.53115 8.17749C6.55629 8.24283 6.59342 8.3022 6.64037 8.35213C6.68731 8.40206 6.74314 8.44154 6.80459 8.46828C6.86604 8.49501 6.93188 8.50847 6.99827 8.50785C7.06466 8.50724 7.13027 8.49257 7.19127 8.4647C7.25227 8.43684 7.30745 8.39633 7.35357 8.34554L10.8536 4.62336C10.9473 4.52364 11 4.38841 11 4.24742C11 4.10642 10.9473 3.97119 10.8536 3.87147L7.35357 0.149291C7.25927 0.0524301 7.13297 -0.00116662 7.00187 4.49047e-05C6.87077 0.00125643 6.74536 0.0571795 6.65266 0.155769C6.55995 0.254358 6.50737 0.387725 6.50623 0.527146C6.50509 0.666566 6.55548 0.800885 6.64656 0.901173L9.29309 3.71567H0.500004C0.367395 3.71567 0.240217 3.7717 0.146448 3.87142C0.0526787 3.97114 -2.98023e-07 4.10639 -2.98023e-07 4.24742C-2.98023e-07 4.38844 0.0526787 4.52369 0.146448 4.62341C0.240217 4.72313 0.367395 4.77916 0.500004 4.77916Z" fill="#181818"/>
</svg>
