<svg width="11" height="9" viewBox="0 0 11 9" fill="none" xmlns="http://www.w3.org/2000/svg">
<path d="M10.5 3.72872H1.70691L4.35344 0.914215C4.40119 0.865164 4.43928 0.806489 4.46549 0.741615C4.49169 0.67674 4.50549 0.606965 4.50606 0.536361C4.50664 0.465757 4.49399 0.395737 4.46885 0.330389C4.44371 0.26504 4.40658 0.20567 4.35963 0.155743C4.31269 0.105817 4.25686 0.0663331 4.19541 0.0395968C4.13396 0.0128604 4.06812 -0.000593454 4.00173 2.0077e-05C3.93534 0.000633608 3.86973 0.0153024 3.80873 0.0431703C3.74773 0.0710383 3.69255 0.111548 3.64643 0.162334L0.146395 3.88452C0.0526582 3.98423 0 4.11946 0 4.26046C0 4.40146 0.0526582 4.53668 0.146395 4.6364L3.64643 8.35858C3.74073 8.45544 3.86703 8.50904 3.99813 8.50783C4.12923 8.50662 4.25464 8.45069 4.34734 8.3521C4.44005 8.25352 4.49263 8.12015 4.49377 7.98073C4.49491 7.84131 4.44452 7.70699 4.35344 7.6067L1.70691 4.7922H10.5C10.6326 4.7922 10.7598 4.73618 10.8536 4.63646C10.9473 4.53673 11 4.40148 11 4.26046C11 4.11943 10.9473 3.98418 10.8536 3.88446C10.7598 3.78474 10.6326 3.72872 10.5 3.72872Z" fill="#181818"/>
</svg>
