<svg width="17" height="17" viewBox="0 0 17 17" fill="none" xmlns="http://www.w3.org/2000/svg">
<path fill-rule="evenodd" clip-rule="evenodd" d="M4.20593 0.941945C2.55651 1.23136 0.892707 2.8288 0.892713 5.84066C0.892713 6.92708 1.34632 8.05611 2.07449 9.16156C2.80026 10.2634 3.77607 11.3072 4.76521 12.2141C5.75257 13.1194 6.74189 13.8779 7.48535 14.4105C7.85668 14.6766 8.1657 14.8855 8.38119 15.0276C8.41703 15.0512 8.45027 15.073 8.48077 15.0928C8.51127 15.073 8.54451 15.0512 8.58035 15.0276C8.79584 14.8855 9.10486 14.6766 9.47619 14.4105C10.2197 13.8779 11.209 13.1194 12.1963 12.2141C13.1855 11.3072 14.1613 10.2634 14.8871 9.16156C15.6152 8.05611 16.0688 6.92708 16.0688 5.84066C16.0688 2.8288 14.405 1.23136 12.7556 0.941946C11.9204 0.795404 11.0691 0.975322 10.3778 1.48538C9.689 1.99355 9.12835 2.85286 8.92128 4.11946H8.04026C7.83319 2.85286 7.27254 1.99355 6.58378 1.48538C5.89246 0.975321 5.0411 0.795403 4.20593 0.941945ZM8.48077 15.6224C8.24661 16.0024 8.24635 16.0023 8.24635 16.0023L8.24449 16.0011L8.23947 15.998L8.22091 15.9864C8.2048 15.9764 8.18131 15.9616 8.15093 15.9422C8.09018 15.9036 8.00185 15.8467 7.88989 15.7729C7.666 15.6254 7.34734 15.4098 6.96544 15.1362C6.20245 14.5896 5.18316 13.8085 4.16192 12.8721C3.14245 11.9374 2.10966 10.8378 1.32898 9.65263C0.550693 8.4711 0 7.16968 0 5.84066C-5.74665e-06 2.4684 1.90705 0.438965 4.05165 0.0626653C5.11349 -0.123649 6.21495 0.103866 7.11378 0.767025C7.67652 1.18221 8.14783 1.75901 8.48077 2.48995C8.81371 1.75901 9.28502 1.18221 9.84776 0.767026C10.7466 0.103867 11.848 -0.123649 12.9099 0.0626661C15.0545 0.438966 16.9615 2.4684 16.9615 5.84066C16.9615 7.16968 16.4108 8.4711 15.6326 9.65263C14.8519 10.8378 13.8191 11.9374 12.7996 12.8721C11.7784 13.8085 10.7591 14.5896 9.9961 15.1362C9.6142 15.4098 9.29554 15.6254 9.07165 15.7729C8.95969 15.8467 8.87136 15.9036 8.81061 15.9422C8.78023 15.9616 8.75674 15.9764 8.74063 15.9864L8.72206 15.998L8.71705 16.0011L8.71562 16.002C8.71562 16.002 8.71493 16.0024 8.48077 15.6224ZM8.48077 15.6224L8.71493 16.0024L8.48077 16.1467L8.24635 16.0023L8.48077 15.6224Z" fill="#181818"/>
</svg>
