<svg width="24" height="24" viewBox="0 0 24 24" fill="none" xmlns="http://www.w3.org/2000/svg">
<g clip-path="url(#clip0_2009_280)">
<path d="M17.9769 0.00170898H5.99321C2.69799 0.00170898 0.00137329 2.69833 0.00137329 5.99355V17.9778C0.00137329 21.2722 2.69799 23.9697 5.99321 23.9697H17.9769C21.2721 23.9697 23.9687 21.2722 23.9687 17.9778V5.99355C23.9687 2.69833 21.2721 0.00170898 17.9769 0.00170898ZM21.9714 17.9778C21.9714 20.1798 20.1801 21.9723 17.9769 21.9723H5.99321C3.79092 21.9723 1.99875 20.1798 1.99875 17.9778V5.99355C1.99875 3.79096 3.79092 1.99909 5.99321 1.99909H17.9769C20.1801 1.99909 21.9714 3.79096 21.9714 5.99355V17.9778Z" fill="#181818"/>
<path d="M18.4772 6.99055C19.3045 6.99055 19.9752 6.31989 19.9752 5.49259C19.9752 4.66529 19.3045 3.99463 18.4772 3.99463C17.6499 3.99463 16.9793 4.66529 16.9793 5.49259C16.9793 6.31989 17.6499 6.99055 18.4772 6.99055Z" fill="#181818"/>
<path d="M11.9841 5.99219C8.67424 5.99219 5.99231 8.67441 5.99231 11.984C5.99231 15.2924 8.67424 17.9765 11.9841 17.9765C15.2931 17.9765 17.976 15.2924 17.976 11.984C17.976 8.67441 15.2931 5.99219 11.9841 5.99219ZM11.9841 15.9791C9.77823 15.9791 7.98969 14.1905 7.98969 11.984C7.98969 9.77752 9.77823 7.98956 11.9841 7.98956C14.1901 7.98956 15.9786 9.77752 15.9786 11.984C15.9786 14.1905 14.1901 15.9791 11.9841 15.9791Z" fill="#181818"/>
</g>
<defs>
<clipPath id="clip0_2009_280">
<rect width="23.9679" height="23.9679" fill="white"/>
</clipPath>
</defs>
</svg>
