<svg width="20" height="20" viewBox="0 0 20 20" fill="none" xmlns="http://www.w3.org/2000/svg">
<path d="M19.1739 19.1739V12.1513C19.1739 8.69995 18.4309 6.06348 14.4043 6.06348C12.4629 6.06348 11.1686 7.11807 10.6413 8.12472H10.5934V6.37506H6.78246V19.1739H10.7611V12.8224C10.7611 11.1447 11.0727 9.53883 13.134 9.53883C15.1712 9.53883 15.1952 11.4323 15.1952 12.9183V19.15H19.1739V19.1739Z" fill="#181818"/>
<path d="M0.311996 6.37549H4.29067V19.1744H0.311996V6.37549Z" fill="#181818"/>
<path d="M2.30092 0C1.03062 0 0 1.03062 0 2.30092C0 3.57122 1.03062 4.62581 2.30092 4.62581C3.57122 4.62581 4.60184 3.57122 4.60184 2.30092C4.60184 1.03062 3.57122 0 2.30092 0Z" fill="#181818"/>
</svg>
