<svg width="18" height="26" viewBox="0 0 18 26" fill="none" xmlns="http://www.w3.org/2000/svg">
<path d="M15.943 9.15119H15.5376L15.5374 5.45757C15.5354 4.01358 14.962 2.62912 13.9423 1.6064C12.9228 0.583883 11.5402 0.00628385 10.0962 0H7.37135C5.92473 0.00201202 4.53764 0.577651 3.51477 1.60073C2.49168 2.62382 1.91604 4.01069 1.91383 5.45752V9.15135H1.50841V9.15115C1.10863 9.15235 0.725764 9.3115 0.443042 9.59419C0.160356 9.87687 0.00121041 10.26 0 10.6596V23.7197C0.00120717 24.1194 0.160356 24.5023 0.443042 24.785C0.725728 25.0677 1.10862 25.2269 1.50841 25.2281H15.9432C16.3428 25.2269 16.7259 25.0677 17.0086 24.785C17.2911 24.5023 17.4504 24.1195 17.4514 23.7197V10.6596C17.4504 10.26 17.2911 9.87691 17.0086 9.59419C16.7259 9.3115 16.3428 9.15236 15.9432 9.15115L15.943 9.15119ZM2.92723 5.45757C2.92723 4.27451 3.39723 3.14017 4.2336 2.3038C5.06997 1.46743 6.20456 0.997433 7.38737 0.997433H10.1162C11.2991 0.997433 12.4334 1.46743 13.2698 2.3038C14.1064 3.14017 14.5762 4.27456 14.5762 5.45757V9.1514L2.92738 9.1512L2.92723 5.45757ZM16.4375 23.7194C16.4375 23.9926 16.216 24.2141 15.943 24.2141H1.52461C1.25138 24.2141 1.02986 23.9926 1.02986 23.7194V10.6593C1.03871 10.3925 1.25762 10.1806 1.52461 10.1808H15.943C16.2099 10.1806 16.4289 10.3925 16.4375 10.6593V23.7194Z" fill="black"/>
<path d="M8.73395 11.2151C7.15011 11.2151 5.63127 11.8442 4.5112 12.9639C3.39113 14.0838 2.76176 15.6025 2.76135 17.1863C2.76095 18.7699 3.38969 20.289 4.50919 21.4092C5.62885 22.5295 7.14753 23.1593 8.73116 23.1601C10.315 23.1609 11.8343 22.5323 12.9547 21.4131C14.0752 20.294 14.7054 18.7753 14.7064 17.1917C14.7054 15.6077 14.0758 14.0886 12.9562 12.9681C11.8365 11.8476 10.318 11.2173 8.734 11.2151H8.73395ZM8.73395 22.1624C7.41933 22.1624 6.1588 21.6407 5.22885 20.7115C4.29909 19.7824 3.77619 18.5221 3.77496 17.2077C3.77395 15.8932 4.29487 14.6321 5.22318 13.7016C6.15149 12.7711 7.41119 12.2469 8.72565 12.2449C10.0403 12.2427 11.3018 12.7626 12.2332 13.6902C13.1645 14.6177 13.6894 15.8772 13.6927 17.1916C13.6905 18.5061 13.1674 19.7661 12.2378 20.6955C11.3085 21.625 10.0484 22.1481 8.73395 22.1503V22.1624Z" fill="black"/>
<path d="M10.5219 18.489C10.5251 18.0074 10.336 17.5444 9.99659 17.2026C9.65696 16.8607 9.19519 16.6686 8.71355 16.6686C8.51638 16.6752 8.32363 16.61 8.17133 16.4849C8.01903 16.3597 7.91742 16.1835 7.88563 15.9889C7.85384 15.7942 7.89408 15.5948 7.9987 15.4276C8.10333 15.2606 8.26529 15.1373 8.45422 15.0809C8.64315 15.0246 8.84616 15.0391 9.02523 15.1216C9.2043 15.2041 9.34715 15.3489 9.42722 15.5292C9.54593 15.7857 9.84994 15.8972 10.1063 15.7787C10.3628 15.66 10.4743 15.3558 10.3558 15.0994C10.1306 14.6361 9.71699 14.2918 9.22041 14.1548V13.591C9.22041 13.3112 8.99346 13.0842 8.71359 13.0842C8.43373 13.0842 8.20678 13.3112 8.20678 13.591V14.1669C7.64339 14.3272 7.19353 14.7518 7.00038 15.3047C6.80723 15.8574 6.89515 16.4698 7.23598 16.9461C7.57682 17.4223 8.12788 17.7029 8.71362 17.6985C8.90596 17.6907 9.09468 17.7514 9.2464 17.8701C9.39791 17.9888 9.50233 18.1575 9.54096 18.3462C9.57959 18.5347 9.54981 18.7309 9.45706 18.8995C9.36431 19.0683 9.21462 19.1982 9.03454 19.2667C8.85467 19.3351 8.65629 19.3373 8.47482 19.2729C8.29354 19.2083 8.14103 19.0816 8.04465 18.9148C7.88711 18.6963 7.58592 18.6391 7.35935 18.7848C7.1326 18.9305 7.05957 19.2282 7.19316 19.4622C7.42816 19.8294 7.78832 20.0988 8.20682 20.2203V20.7881C8.20682 21.068 8.43377 21.2949 8.71364 21.2949C8.9935 21.2949 9.22045 21.068 9.22045 20.7881V20.2163C9.59488 20.1076 9.92404 19.8807 10.1587 19.5694C10.3933 19.2579 10.5208 18.8789 10.522 18.4889L10.5219 18.489Z" fill="black"/>
</svg>
