<svg width="24" height="26" viewBox="0 0 24 26" fill="none" xmlns="http://www.w3.org/2000/svg">
<path d="M12.7699 0H12.3056H11.8876C6.03665 0.232038 1.39294 5.06152 1.39294 10.9123C1.39294 11.5624 1.43949 12.2126 1.57866 12.8161H2.83241C2.73955 12.3517 2.693 11.8875 2.64669 11.3766H5.10787V11.516C5.15442 11.934 5.20073 12.3983 5.24728 12.8163H6.17588C6.08302 12.352 6.03647 11.934 5.99016 11.4697V11.3769H11.8411V14.7203H12.7697V11.3769H18.6207V11.4697C18.5278 13.2343 17.9706 14.906 17.0418 16.3455C16.0201 15.6954 14.9521 15.2309 13.9306 14.9989C14.1163 15.1383 14.2558 15.2775 14.3486 15.4632C14.488 15.6955 14.6272 15.974 14.7666 16.2061C15.3703 16.4384 15.9275 16.7169 16.4846 17.0884C16.2524 17.367 16.0203 17.6921 15.7417 17.9707C15.7883 18.1101 15.8811 18.2029 15.9275 18.3421C16.0203 18.4815 16.0669 18.6673 16.1132 18.8993C16.4846 18.5278 16.8561 18.1098 17.1812 17.6455C17.5526 17.9241 17.8778 18.2027 18.2492 18.5278C17.5991 19.0387 16.856 19.503 16.0666 19.8281C16.1131 19.9675 16.1594 20.1067 16.1594 20.2461V20.757V20.8498C16.206 20.8964 16.2988 20.9892 16.3452 21.0355C20.3854 19.3636 23.2179 15.4629 23.2179 10.9125C23.2179 5.06154 18.5742 0.23202 12.7699 0.000194421L12.7699 0ZM9.98364 1.48581C8.96196 2.22871 8.0799 3.111 7.33676 4.13269C6.91877 3.80756 6.59386 3.529 6.36162 3.29693C7.3833 2.46095 8.63705 1.85749 9.98364 1.48581ZM5.06157 10.448H2.64692C2.78633 7.89392 3.90067 5.57219 5.66526 3.90021C5.94384 4.1788 6.31531 4.55027 6.82615 4.92189C5.71156 6.5934 5.15441 8.49737 5.06157 10.4477V10.448ZM11.8411 10.448H5.99017C6.08303 8.68336 6.59386 6.96532 7.52251 5.43274C8.5905 6.12933 9.9837 6.73302 11.6554 6.82587H11.8411L11.8411 10.448ZM11.8411 5.94364H11.7483C10.2623 5.85078 9.00854 5.29358 8.07989 4.68989C9.05503 3.3433 10.3553 2.22871 11.8877 1.43932V5.94364H11.8411ZM21.9642 10.448H19.5495C19.503 8.49767 18.8995 6.59387 17.8315 4.87559C17.8315 4.87559 17.8315 4.82904 17.7849 4.82904C18.1564 4.55046 18.5744 4.22535 18.9458 3.8539C20.7104 5.52564 21.8713 7.84737 21.9642 10.4482L21.9642 10.448ZM18.2495 3.25016C17.9244 3.52874 17.5994 3.80732 17.2743 4.0396C16.5314 3.06446 15.6491 2.18217 14.674 1.48557C15.9741 1.85725 17.1813 2.46071 18.2495 3.25016ZM12.77 1.43926C14.256 2.22871 15.5097 3.2967 16.4849 4.59699C15.2311 5.38643 13.9774 5.80442 12.77 5.94358V1.43926ZM12.77 10.448V6.87253C14.2094 6.77967 15.6026 6.26884 17.042 5.38655C18.0172 6.9189 18.5744 8.68348 18.6209 10.4946L12.77 10.4944V10.448ZM19.0387 17.8776C18.6207 17.5062 18.2029 17.1347 17.7849 16.8559C18.8066 15.2308 19.4101 13.4196 19.5495 11.5159V11.3765H22.0107C21.8713 13.9307 20.757 16.206 19.0387 17.8776Z" fill="black"/>
<path d="M9.47275 13.0483H1.02145C0.464283 13.0483 0 13.5126 0 14.0698V20.0601C0 20.6173 0.464306 21.0818 1.02168 21.0818H3.20426C3.52939 20.9424 3.85432 20.8495 4.1794 20.8495C4.50449 20.8495 4.876 20.9424 5.15455 21.0818H9.42662C9.98379 21.0818 10.4483 20.6175 10.4483 20.0601L10.4481 14.0698C10.4944 13.5126 10.0301 13.0483 9.47293 13.0483H9.47275Z" fill="black"/>
<path d="M13.0014 21.5461C12.0263 21.5461 11.1905 22.3819 11.1905 23.357C11.1905 24.3787 11.98 25.1679 13.0014 25.1679C13.9766 25.1679 14.8123 24.3322 14.8123 23.357C14.8125 22.3819 14.0231 21.5461 13.0014 21.5461ZM13.0014 24.1465C12.5371 24.1465 12.212 23.775 12.212 23.357C12.212 22.939 12.5834 22.5676 13.0014 22.5676C13.4657 22.5676 13.7909 22.939 13.7909 23.357C13.7909 23.8213 13.4194 24.1465 13.0014 24.1465Z" fill="black"/>
<path d="M4.17893 21.5461C3.20379 21.5461 2.36804 22.3356 2.36804 23.357C2.36804 24.3322 3.15749 25.1679 4.17893 25.1679C5.20062 25.1679 5.98983 24.3785 5.98983 23.357C5.98983 22.3819 5.20038 21.5461 4.17893 21.5461ZM4.17893 24.1465C3.76095 24.1465 3.38949 23.775 3.38949 23.357C3.38949 22.8927 3.76093 22.5676 4.17893 22.5676C4.59693 22.5676 4.96838 22.939 4.96838 23.357C4.96838 23.8213 4.64325 24.1465 4.17893 24.1465Z" fill="black"/>
<path d="M1.67129 23.357C1.67129 22.6604 1.99641 22.0104 2.46073 21.5461H0.742687C0.464102 21.5461 0.278381 21.7784 0.278381 22.057V23.0787C0.278381 23.3573 0.464102 23.543 0.696369 23.5895C1.0215 23.6361 1.34642 23.5895 1.67151 23.5895C1.7176 23.5428 1.67129 23.4499 1.67129 23.357Z" fill="black"/>
<path d="M15.6947 20.0602H15.4161C15.2304 20.0602 15.091 19.9207 15.091 19.735C15.091 19.5493 15.2304 19.4099 15.4161 19.4099H15.6947C15.7875 19.4099 15.8804 19.317 15.8804 19.2242C15.8804 19.0385 15.8338 18.8062 15.741 18.6205C15.1838 17.5988 14.5801 16.5773 13.9764 15.5556C13.837 15.3234 13.6513 15.2305 13.3727 15.277C12.769 15.3236 12.2118 15.3236 11.6081 15.277C11.051 15.2305 10.7258 15.5093 10.7258 16.0665V21.4995L5.89661 21.4997L5.94315 21.5462C6.40746 22.0105 6.68605 22.6608 6.68605 23.3108C6.68605 23.4037 6.68605 23.4502 6.63951 23.5431H10.4936V23.3108C10.4936 21.9177 11.6082 20.8033 13.0011 20.8033C13.3725 20.8033 13.6977 20.8962 14.0228 21.0356H15.8802V20.1998C15.8804 20.1531 15.7876 20.0602 15.6947 20.0602L15.6947 20.0602ZM14.1621 18.435H13.0013H11.8867C11.7473 18.435 11.7009 18.3884 11.7009 18.2492V16.5312C11.7009 16.3918 11.7475 16.3455 11.8867 16.3455H13.0941C13.1406 16.3455 13.2798 16.392 13.2798 16.4849C13.6049 17.0421 13.9299 17.6458 14.255 18.2029C14.3944 18.3884 14.3481 18.435 14.1621 18.435Z" fill="black"/>
<path d="M15.9275 21.5461H14.7666L14.8132 21.5927C15.2775 22.057 15.5561 22.7073 15.5561 23.3573V23.5895C16.0669 23.6361 16.2527 23.5896 16.4384 23.1716V21.9178C16.2992 21.7319 16.1598 21.5925 15.9275 21.5461Z" fill="black"/>
</svg>
