<svg width="19" height="19" viewBox="0 0 19 19" fill="none" xmlns="http://www.w3.org/2000/svg">
<path d="M0.361011 0.0701168C0.124145 0.192138 -0.00146484 0.41106 -0.00146484 0.705347C-0.00146484 1.04629 0.0810791 1.16472 0.536865 1.4949C0.74502 1.64204 1.1075 1.96145 1.34436 2.19832C2.14468 3.00581 2.67942 3.91021 2.99524 5.00122C3.20339 5.72617 3.1998 5.66516 3.22852 8.80542C3.25364 11.6155 3.25723 11.7232 3.33259 12.0677C3.67354 13.6109 4.75737 14.824 6.22522 15.3013C6.83174 15.4987 6.84609 15.4987 10.3524 15.4987C13.1051 15.4987 13.6398 15.4915 13.909 15.4448C15.4522 15.1757 16.7478 14.0452 17.2359 12.5378C17.2897 12.3799 17.5589 11.3392 17.8424 10.223L18.352 8.19531L18.3556 7.5852C18.3556 7.05405 18.3448 6.93921 18.273 6.68799C18.09 6.05994 17.7814 5.53237 17.3184 5.06941C16.8662 4.61721 16.4032 4.34087 15.786 4.15066L15.5204 4.0717L10.801 4.05017C6.4585 4.02864 6.06013 4.02146 5.8125 3.96404C5.21316 3.82407 4.68919 3.5908 4.23699 3.2678C3.84221 2.98787 3.7166 2.85508 3.45461 2.45313C2.86963 1.55591 2.05855 0.723291 1.24028 0.177783C1.02136 0.0306393 0.971118 0.0126959 0.755786 0.00192931C0.565576 -0.00524843 0.486621 0.00551718 0.361011 0.0701168ZM5.00501 5.27039C5.72637 5.4929 5.58999 5.48572 10.3668 5.48572C12.8287 5.48572 14.8564 5.50007 15.0215 5.51802C15.4055 5.56467 15.6819 5.66516 15.9834 5.86973C16.5612 6.2645 16.9021 6.90691 16.9021 7.58879C16.9021 7.83284 16.8267 8.17378 16.3638 10.0077C15.908 11.8272 15.8075 12.1861 15.6819 12.4374C15.3051 13.1982 14.6591 13.7222 13.7977 13.9626L13.5106 14.0452H10.3883C6.83174 14.0452 6.98606 14.0559 6.33289 13.7401C5.7156 13.4386 5.32441 13.0475 5.02295 12.4302C4.71431 11.7914 4.72507 11.9241 4.69636 8.64392C4.67842 6.18914 4.66406 5.71182 4.61741 5.46777C4.54204 5.10889 4.54204 5.11248 4.621 5.14478C4.6533 5.15913 4.82915 5.21655 5.00501 5.27039Z" fill="#181818"/>
<path d="M6.14724 16.579C5.69146 16.6615 5.42229 16.9917 5.4187 17.4726C5.4187 18.0432 5.79912 18.3985 6.38052 18.3626C6.69993 18.3447 6.92961 18.2155 7.08752 17.9607C7.18442 17.7992 7.19519 17.7561 7.19519 17.4726C7.19519 17.1891 7.18442 17.146 7.08752 16.9845C6.89731 16.683 6.51689 16.518 6.14724 16.579Z" fill="#181818"/>
<path d="M13.2892 16.579C12.8334 16.6615 12.5643 16.9917 12.5607 17.4726C12.5607 18.0432 12.9411 18.3985 13.5225 18.3626C13.8419 18.3447 14.0716 18.2155 14.2295 17.9607C14.3264 17.7992 14.3372 17.7561 14.3372 17.4726C14.3372 17.1891 14.3264 17.146 14.2295 16.9845C14.0393 16.683 13.6589 16.518 13.2892 16.579Z" fill="#181818"/>
</svg>
