<svg width="25" height="25" viewBox="0 0 25 25" fill="none" xmlns="http://www.w3.org/2000/svg">
<path d="M18.4255 12.2229C18.2162 12.2229 18.0466 12.3924 18.0466 12.6017V13.5157C18.0466 13.7248 18.216 13.8945 18.4255 13.8945C18.6347 13.8945 18.8043 13.725 18.8043 13.5157V12.6017C18.8043 12.3924 18.6347 12.2229 18.4255 12.2229Z" fill="black"/>
<path d="M5.62784 12.2229C5.41856 12.2229 5.24902 12.3924 5.24902 12.6017V13.5157C5.24902 13.7248 5.41836 13.8945 5.62784 13.8945C5.83712 13.8945 6.00666 13.725 6.00666 13.5157V12.6017C6.00666 12.3924 5.83732 12.2229 5.62784 12.2229Z" fill="black"/>
<path d="M18.4255 14.6521C18.2162 14.6521 18.0466 14.8216 18.0466 15.0309V15.9449C18.0466 16.154 18.216 16.3237 18.4255 16.3237C18.6347 16.3237 18.8043 16.1542 18.8043 15.9449V15.0309C18.8043 14.8218 18.6347 14.6521 18.4255 14.6521Z" fill="black"/>
<path d="M14.4778 22.2994H13.272C12.5274 22.2994 11.9219 22.905 11.9219 23.6497C11.9219 24.3943 12.5274 25 13.272 25H14.4778C14.8576 25 15.1666 24.6909 15.1666 24.3112V24.0049C17.3095 23.8088 19.1071 22.3365 19.7177 20.2616C20.7476 20.1698 21.5727 19.3578 21.6867 18.333C23.0752 18.1525 24.152 16.9649 24.152 15.5283C24.152 14.0919 23.0756 12.9046 21.6876 12.7236C21.6344 12.2458 21.4242 11.8004 21.0909 11.4558C21.0913 11.4376 21.0951 11.4194 21.0951 11.4013V9.02191C21.0951 4.04718 17.0497 0 12.0772 0C7.1045 0.00019968 3.0589 4.04739 3.0589 9.02191C3.0605 10.0875 3.05551 11.1838 3.06309 11.4554C2.73001 11.8003 2.51993 12.2452 2.46681 12.7226C1.07754 12.9026 0 14.0903 0 15.5277C0 16.9653 1.07795 18.1533 2.46743 18.3328C2.58864 19.4213 3.51204 20.271 4.63089 20.271H7.02838C7.23766 20.271 7.4072 20.1015 7.4072 19.8922V11.1658C7.4072 10.9567 7.23786 10.787 7.02838 10.787H6.49421V9.02189C6.49421 5.94361 8.99875 3.43892 12.0772 3.43892C15.1535 3.43892 17.6561 5.94346 17.6561 9.02189V10.787H17.1219C16.9126 10.787 16.7431 10.9565 16.7431 11.1658V19.8922C16.7431 20.1013 16.9124 20.271 17.1219 20.271H18.9206C18.3465 21.9055 16.8921 23.0561 15.1667 23.2413V22.9877C15.1669 22.6081 14.858 22.2991 14.4782 22.2991L14.4778 22.2994ZM14.4091 24.2422H13.2721C12.9454 24.2422 12.6796 23.9762 12.6796 23.6495C12.6796 23.3228 12.9455 23.0568 13.2721 23.0568H14.4091V24.2422ZM21.7011 13.4893C22.6632 13.6686 23.3945 14.5143 23.3945 15.528C23.3945 16.5414 22.6634 17.3871 21.7011 17.5666V13.4893ZM2.4523 17.567C1.48917 17.3883 0.757115 16.542 0.757115 15.528C0.757115 14.5137 1.48917 13.6674 2.4523 13.4889V17.567ZM6.64927 11.5449V19.5143H4.63038C3.84741 19.5143 3.20997 18.8754 3.20997 18.0903L3.21017 12.9653C3.21017 12.1712 3.85558 11.5449 4.63058 11.5449H6.1153H6.64927ZM12.0768 2.68201C8.58079 2.68201 5.73624 5.52626 5.73624 9.0221V10.7872H4.63033C4.39809 10.7872 4.12151 10.8287 3.84214 10.9373C3.83355 10.9407 3.82437 10.9417 3.81578 10.9451V9.02209C3.81578 4.46507 7.52168 0.757796 12.0765 0.757796C16.6311 0.757796 20.3372 4.46528 20.3372 9.02209V10.9451C20.1439 10.8668 19.8184 10.7872 19.523 10.7872H18.4129L18.4131 9.0221C18.4131 5.52606 15.5705 2.68202 12.0766 2.68202L12.0768 2.68201ZM17.5003 19.5137V11.5449H19.5232C20.9528 11.5449 20.9274 13.0286 20.9436 13.0666C20.9436 13.0698 20.9418 13.0726 20.9418 13.0758V17.9809C20.9418 17.9841 20.9436 17.9868 20.9436 17.99V18.0901C20.9436 18.8753 20.3064 19.5141 19.5232 19.5141L17.5003 19.5137Z" fill="black"/>
</svg>
