<svg width="24" height="27" viewBox="0 0 24 27" fill="none" xmlns="http://www.w3.org/2000/svg">
<path d="M17.6361 9.7463C19.3723 10.9918 21.4994 11.7247 23.7966 11.7247V7.28834C23.3619 7.2884 22.9282 7.24289 22.5029 7.1525V10.6446C20.2058 10.6446 18.079 9.91167 16.3423 8.66619V17.7196C16.3423 22.2486 12.6839 25.9198 8.17132 25.9198C6.48753 25.9198 4.92254 25.4089 3.62253 24.5328C5.10631 26.0554 7.17553 26.9999 9.46479 26.9999C13.9777 26.9999 17.6363 23.3286 17.6363 18.7995L17.6361 9.7463ZM19.2321 5.2705C18.3447 4.29763 17.7622 3.04039 17.6361 1.65045V1.07983H16.4101C16.7187 2.84644 17.7713 4.35573 19.2321 5.2705ZM6.47673 21.0574C5.981 20.4051 5.71308 19.607 5.71426 18.7865C5.71426 16.7152 7.38764 15.0357 9.45207 15.0357C9.83682 15.0355 10.2192 15.0947 10.5859 15.2114V10.6759C10.1574 10.6169 9.72494 10.5919 9.29266 10.6011V14.1313C8.92574 14.0146 8.54313 13.9553 8.15833 13.9557C6.09384 13.9557 4.42063 15.635 4.42063 17.7066C4.42063 19.1714 5.25701 20.4396 6.47673 21.0574Z" fill="#FF004F"/>
<path d="M16.3421 8.66613C18.0788 9.91162 20.2056 10.6444 22.5027 10.6444V7.15239C21.2204 6.87828 20.0853 6.20581 19.2319 5.2705C17.771 4.35564 16.7185 2.84635 16.4098 1.07983H13.1895V18.7993C13.1821 20.8651 11.5117 22.5377 9.45165 22.5377C8.23772 22.5377 7.15929 21.957 6.47625 21.0574C5.25664 20.4397 4.42026 19.1714 4.42026 17.7067C4.42026 15.6353 6.09347 13.9558 8.1579 13.9558C8.55345 13.9558 8.93471 14.0176 9.29229 14.1314V10.6012C4.85895 10.6931 1.29349 14.3284 1.29349 18.7994C1.29349 21.0313 2.18138 23.0545 3.62242 24.5329C4.92246 25.4089 6.48744 25.9199 8.17117 25.9199C12.6839 25.9199 16.3422 22.2485 16.3422 17.7196L16.3421 8.66613Z" fill="black"/>
<path d="M22.5029 7.15253V6.20831C21.3466 6.21006 20.213 5.8851 19.232 5.27055C20.1005 6.22468 21.244 6.88258 22.5029 7.15253ZM16.41 1.07998C16.3806 0.911149 16.358 0.741206 16.3423 0.570617V0H11.8957V17.7197C11.8887 19.7851 10.2183 21.4577 8.15811 21.4577C7.55325 21.4577 6.9822 21.3137 6.47646 21.0576C7.15944 21.9571 8.23792 22.5377 9.45186 22.5377C11.5117 22.5377 13.1824 20.8653 13.1896 18.7995V1.07998H16.41ZM9.29267 10.6013V9.59614C8.92114 9.54517 8.54651 9.51958 8.17149 9.51975C3.6584 9.51969 0 13.1911 0 17.7197C0 20.5589 1.43782 23.061 3.62269 24.5329C2.18164 23.0546 1.29376 21.0313 1.29376 18.7995C1.29376 14.3286 4.85916 10.6932 9.29267 10.6013Z" fill="#00F2EA"/>
</svg>
