<svg width="17" height="20" viewBox="0 0 17 20" fill="none" xmlns="http://www.w3.org/2000/svg">
<path d="M7.30677 0.0226972C6.64421 0.128707 6.06873 0.325582 5.62576 0.590606C4.94048 0.9995 4.31579 1.62041 3.90689 2.29433C3.69487 2.64265 3.50557 3.12726 3.39956 3.57402C3.28976 4.04728 3.26326 4.99379 3.34655 5.47083C3.58886 6.8641 4.42558 8.04535 5.68634 8.76849C6.92817 9.48027 8.58267 9.54085 9.94187 8.9275C10.3962 8.72306 10.824 8.40882 11.267 7.96963C12.2589 6.97769 12.6943 5.84944 12.6338 4.45617C12.577 3.21813 12.1567 2.24511 11.2935 1.37053C10.6044 0.670113 9.74499 0.219572 8.79469 0.0529857C8.49559 -1.91352e-05 7.55665 -0.0189494 7.30677 0.0226972ZM8.9272 1.27967C9.49511 1.44625 10.01 1.7605 10.4606 2.21861C10.9111 2.67672 11.161 3.09698 11.3465 3.69517C11.4411 4.00184 11.4487 4.07757 11.4487 4.67198C11.4449 5.25882 11.4374 5.34589 11.3465 5.64878C11.1723 6.22047 10.9187 6.64451 10.4719 7.10641C9.80557 7.79926 8.91963 8.17408 7.97312 8.17408C7.03418 8.17029 6.26182 7.86362 5.59169 7.22757C5.06921 6.73159 4.75118 6.22805 4.57324 5.61092C4.49752 5.35347 4.48616 5.23231 4.48994 4.65305C4.48994 4.0397 4.49752 3.96398 4.59595 3.64974C4.85341 2.81302 5.44782 2.07474 6.24667 1.60148C6.54199 1.42732 6.82973 1.31753 7.23484 1.22666C7.60208 1.14337 8.56374 1.17366 8.9272 1.27967Z" fill="#181818"/>
<path d="M3.74832 9.37059C2.87374 9.49931 2.21118 9.82491 1.65463 10.3966C0.594533 11.487 0.00012207 13.4217 0.00012207 15.788C0.00012207 16.7875 0.0720572 17.1434 0.390086 17.7718C0.507454 18.0028 0.628608 18.158 0.889846 18.4193C1.26088 18.7941 1.58269 19.0061 2.03324 19.1651C2.65793 19.3923 2.4497 19.3847 8.23858 19.3734L13.5353 19.362L13.8571 19.2636C14.266 19.1348 14.4818 19.0402 14.7544 18.866C15.3867 18.4647 15.8523 17.8286 16.053 17.1093C16.1742 16.6587 16.2082 16.1211 16.1666 15.292C15.9773 11.5816 14.5689 9.49174 12.1723 9.35923C11.6574 9.33272 11.6498 9.33272 10.7677 9.90063C10.0862 10.336 9.61292 10.5518 8.98444 10.7146C8.51118 10.8396 7.6631 10.8396 7.19363 10.7184C6.5235 10.5443 6.07296 10.336 5.39147 9.89306C5.14159 9.73026 4.83492 9.54096 4.70241 9.47281C4.48281 9.35923 4.4336 9.34787 4.15343 9.35166C3.98305 9.35544 3.80132 9.36301 3.74832 9.37059ZM4.75162 10.8888C5.42933 11.3242 5.93287 11.5703 6.51971 11.7482C7.6631 12.0928 8.74592 12.07 9.88552 11.6725C10.4042 11.4946 10.7752 11.3015 11.4454 10.8699L12.0057 10.514L12.2367 10.5367C13.6337 10.6957 14.4818 11.8391 14.8604 14.0615C14.974 14.7203 15.0421 15.9508 14.9929 16.3937C14.8907 17.3099 14.319 17.946 13.4103 18.158C13.1377 18.2224 12.8084 18.2262 8.06442 18.2262C2.44592 18.2262 2.8018 18.2413 2.23768 17.9725C1.92723 17.8249 1.53726 17.4425 1.39339 17.1471C1.21166 16.7685 1.1738 16.5338 1.1738 15.7993C1.17759 13.8041 1.64327 12.1609 2.46863 11.2598C2.78666 10.9115 3.1842 10.6881 3.69153 10.5783C4.11935 10.4837 4.13071 10.4875 4.75162 10.8888Z" fill="#181818"/>
</svg>
