<svg width="123" height="26" viewBox="0 0 123 26" fill="none" xmlns="http://www.w3.org/2000/svg">
<g clip-path="url(#clip0_2009_449)">
<rect width="123" height="25.0126" fill="white"/>
<path d="M0 0C40.59 0 81.18 0 123 0C123 8.25415 123 16.5083 123 25.0126C82.41 25.0126 41.82 25.0126 0 25.0126C0 16.7584 0 8.50428 0 0Z" fill="#FBFBFB"/>
<path d="M117.717 4.20839C119.526 5.42966 120.613 6.93894 121.195 9.02516C121.801 12.1609 121.662 15.3254 120.072 18.1571C118.836 19.9267 117.313 20.9724 115.233 21.5315C112.328 22.0359 109.247 21.7865 106.755 20.1132C105.178 18.7546 104.487 17.1844 103.918 15.2138C103.868 15.048 103.818 14.8821 103.767 14.7112C103.235 12.0761 103.673 9.22928 104.998 6.89781C107.748 2.89991 113.463 2.07839 117.717 4.20839Z" fill="#181818"/>
<path d="M69.6227 3.61006C71.6649 3.61006 73.7072 3.61006 75.8114 3.61006C76.0666 4.29082 76.3219 4.97157 76.5849 5.67295C76.9682 6.34913 76.9682 6.34913 77.4049 6.9391C77.6367 7.26593 77.6367 7.26593 77.8732 7.59936C78.1131 7.93018 78.1131 7.93018 78.3577 8.26769C78.5156 8.48923 78.6735 8.71078 78.8362 8.93903C79.2871 9.57093 79.7408 10.2007 80.195 10.8302C80.4484 11.1842 80.7016 11.5385 80.9545 11.8929C81.1293 12.1378 81.3042 12.3828 81.4843 12.6352C81.4995 11.7435 81.5085 10.8517 81.5165 9.9599C81.5209 9.71094 81.5252 9.46197 81.5296 9.20546C81.5427 7.25933 81.3276 5.4606 80.7107 3.61006C82.8381 3.61006 84.9654 3.61006 87.1573 3.61006C86.9871 4.20572 86.8169 4.80138 86.6415 5.41509C86.5655 6.1579 86.5655 6.1579 86.5748 6.89736C86.5724 7.31557 86.5724 7.31557 86.5699 7.74224C86.5709 8.03829 86.572 8.33435 86.5731 8.63937C86.5726 8.94794 86.5721 9.25651 86.5716 9.57443C86.5712 10.2248 86.5722 10.8752 86.5743 11.5256C86.5771 12.5199 86.5743 13.514 86.571 14.5082C86.5714 15.1413 86.572 15.7744 86.5731 16.4075C86.572 16.704 86.571 17.0006 86.5699 17.3062C86.5715 17.5842 86.5731 17.8622 86.5748 18.1486C86.5752 18.3917 86.5756 18.6347 86.5761 18.8852C86.6287 19.755 86.6287 19.755 87.1573 21.1447C85.2001 21.1447 83.2429 21.1447 81.2265 21.1447C80.8861 20.4639 80.5457 19.7831 80.195 19.0818C79.9215 18.6494 79.6378 18.2232 79.3408 17.8066C79.1859 17.5875 79.031 17.3685 78.8715 17.1428C78.7126 16.9211 78.5537 16.6993 78.39 16.4709C78.0729 16.0245 77.7559 15.5779 77.4391 15.1312C77.2177 14.82 77.2177 14.82 76.9919 14.5024C76.499 13.8024 76.023 13.0933 75.5535 12.3774C75.5384 13.4518 75.5293 14.5261 75.5213 15.6006C75.5148 16.0544 75.5148 16.0544 75.5082 16.5172C75.5065 16.8131 75.5048 17.1089 75.5031 17.4137C75.5004 17.6838 75.4977 17.9539 75.495 18.2321C75.5434 19.2976 75.5434 19.2976 76.0692 21.1447C73.9419 21.1447 71.8145 21.1447 69.6227 21.1447C70.0056 19.613 70.0056 19.613 70.3963 18.0503C70.4613 17.132 70.4996 16.263 70.4899 15.3478C70.4901 15.1059 70.4902 14.8639 70.4903 14.6146C70.4897 14.1087 70.4873 13.6028 70.483 13.0969C70.4768 12.328 70.4777 11.5593 70.4794 10.7904C70.4779 10.295 70.4761 9.79958 70.4738 9.30417C70.4742 8.96443 70.4742 8.96443 70.4745 8.61783C70.4547 6.86606 70.1765 5.27164 69.6227 3.61006Z" fill="#181818"/>
<path d="M1.28931 3.61006C3.50176 3.61006 5.71421 3.61006 7.99371 3.61006C7.82352 4.03553 7.65333 4.46101 7.47799 4.89937C7.18226 6.25071 7.13843 7.61533 7.07508 8.99292C7.03785 9.76941 7.00062 10.5459 6.96226 11.3459C8.83434 11.3459 10.7064 11.3459 12.6352 11.3459C12.5953 10.2929 12.5953 10.2929 12.5546 9.21855C12.5482 9.0044 12.5418 8.79026 12.5352 8.56962C12.4502 6.77074 12.064 5.45115 11.6038 3.61006C13.7311 3.61006 15.8585 3.61006 18.0503 3.61006C17.8801 4.12063 17.7099 4.63119 17.5346 5.15723C17.278 6.53993 17.2354 7.88538 17.2334 9.28604C17.2326 9.50509 17.2317 9.72413 17.2308 9.94982C17.2295 10.4116 17.2289 10.8735 17.2289 11.3353C17.2284 12.0324 17.2237 12.7294 17.2188 13.4264C17.2103 16.047 17.2121 18.63 18.0503 21.1447C15.923 21.1447 13.7956 21.1447 11.6038 21.1447C11.774 20.549 11.9441 19.9533 12.1195 19.3396C12.2092 18.7218 12.2092 18.7218 12.2263 18.148C12.2354 17.9641 12.2446 17.7801 12.2541 17.5906C12.2629 17.3647 12.2716 17.1388 12.2807 16.9061C12.3285 15.8131 12.3285 15.8131 12.3774 14.6981C10.5904 14.6981 8.80339 14.6981 6.96226 14.6981C7.03672 15.4746 7.11118 16.2511 7.18789 17.0511C7.21012 17.2928 7.23235 17.5345 7.25525 17.7835C7.27491 17.9786 7.29456 18.1737 7.31481 18.3747C7.34317 18.6704 7.34317 18.6704 7.3721 18.9721C7.48993 19.7652 7.48993 19.7652 7.99371 21.1447C5.86635 21.1447 3.73899 21.1447 1.54717 21.1447C1.71736 20.549 1.88755 19.9533 2.06289 19.3396C2.14047 18.6092 2.14047 18.6092 2.13372 17.8851C2.13617 17.6123 2.13863 17.3395 2.14116 17.0584C2.14093 16.7688 2.14069 16.4792 2.14045 16.1808C2.14156 15.8786 2.14266 15.5763 2.1438 15.265C2.14528 14.6278 2.14541 13.9906 2.14429 13.3534C2.14348 12.3806 2.14953 11.4081 2.15606 10.4353C2.15665 9.81486 2.15683 9.19438 2.15657 8.5739C2.15894 8.28429 2.16132 7.99469 2.16376 7.69631C2.16216 7.4235 2.16055 7.15068 2.1589 6.86959C2.15906 6.63168 2.15922 6.39376 2.15939 6.14864C2.06878 5.20393 2.06878 5.20393 1.28931 3.61006Z" fill="#181818"/>
<path d="M54.9246 3.61006C56.8817 3.61006 58.8389 3.61006 60.8554 3.61006C61.8026 5.63248 62.64 7.68127 63.4321 9.76829C64.4269 12.3857 65.4421 14.9924 66.5445 17.5668C66.6366 17.7832 66.7288 17.9995 66.8237 18.2224C67.2741 19.2613 67.744 20.1624 68.3334 21.1447C66.1209 21.1447 63.9085 21.1447 61.629 21.1447C61.629 20.1235 61.629 19.1024 61.629 18.0503C58.4379 18.178 58.4379 18.178 55.1824 18.3082C55.0011 19.7235 55.0011 19.7235 54.9246 21.1447C52.7972 21.1447 50.6699 21.1447 48.478 21.1447C48.7735 20.5753 49.069 20.0059 49.3735 19.4192C50.5431 17.1095 51.5096 14.7305 52.4451 12.3181C52.7193 11.613 52.9986 10.9101 53.2782 10.2072C53.4563 9.75186 53.6341 9.2964 53.8115 8.84083C53.894 8.63449 53.9764 8.42815 54.0614 8.21557C54.6429 6.69773 54.9246 5.23813 54.9246 3.61006Z" fill="#181818"/>
<path d="M32.7485 3.3522C32.8798 3.91573 33.0081 4.47994 33.1352 5.04442C33.207 5.35854 33.2788 5.67266 33.3528 5.99629C33.5185 6.94221 33.5516 7.80935 33.522 8.7673C33.3459 8.69583 33.1697 8.62437 32.9882 8.55073C30.1969 7.54772 27.4365 7.53072 24.4969 7.47799C24.4969 8.58422 24.4969 9.69044 24.4969 10.8302C26.8631 10.7259 29.1463 10.6073 31.4591 10.0566C31.4591 11.7585 31.4591 13.4604 31.4591 15.2138C30.6933 14.9586 29.9274 14.7033 29.1384 14.4403C28.3457 14.352 27.594 14.2873 26.8015 14.263C26.6029 14.2542 26.4043 14.2454 26.1997 14.2363C25.7182 14.2153 25.2365 14.1984 24.7547 14.1824C24.7547 15.2035 24.7547 16.2247 24.7547 17.2767C25.8187 17.2541 26.8821 17.2266 27.9458 17.1962C28.2439 17.1903 28.5421 17.1845 28.8493 17.1785C30.6959 17.1211 32.302 16.8874 34.0378 16.2453C33.9156 17.0513 33.7915 17.8571 33.6671 18.6627C33.6324 18.8921 33.5976 19.1215 33.5618 19.3578C33.5278 19.5771 33.4937 19.7965 33.4586 20.0226C33.412 20.3264 33.412 20.3264 33.3645 20.6364C33.2642 21.1447 33.2642 21.1447 33.0063 21.6604C32.7236 21.6195 32.4409 21.5787 32.1496 21.5365C30.8167 21.3706 29.4891 21.3442 28.1472 21.3209C27.8869 21.3156 27.6265 21.3102 27.3583 21.3047C26.5334 21.2879 25.7085 21.2727 24.8837 21.2575C24.3216 21.2463 23.7596 21.2351 23.1975 21.2237C21.8256 21.1962 20.4537 21.17 19.0818 21.1447C19.2015 20.8176 19.2015 20.8176 19.3235 20.4839C19.8523 18.7733 19.8964 17.1018 19.8987 15.3287C19.8995 15.0963 19.9004 14.864 19.9013 14.6246C19.9026 14.1353 19.9032 13.646 19.9032 13.1566C19.9037 12.4137 19.9084 11.6708 19.9133 10.9279C19.914 10.4501 19.9146 9.97233 19.9148 9.49455C19.9167 9.27529 19.9185 9.05604 19.9204 8.83013C19.9149 7.37059 19.7087 6.05175 19.3396 4.64151C19.2536 4.29773 19.1676 3.95392 19.0818 3.61007C20.8623 3.57319 22.6429 3.53649 24.4235 3.49989C25.0293 3.48743 25.6351 3.47492 26.2408 3.46237C27.1113 3.44435 27.9818 3.42647 28.8523 3.40861C29.1234 3.40297 29.3944 3.39733 29.6737 3.39152C29.9266 3.38636 30.1795 3.38119 30.44 3.37587C30.7733 3.369 30.7733 3.369 31.1133 3.36199C31.6583 3.35316 32.2034 3.3522 32.7485 3.3522Z" fill="#181818"/>
<path d="M33.522 3.61006C35.7344 3.61006 37.9469 3.61006 40.2264 3.61006C40.2264 4.37591 40.2264 5.14176 40.2264 5.93082C40.4614 6.86861 40.4614 6.86861 40.8287 7.757C40.8905 7.91725 40.9522 8.0775 41.0158 8.24261C41.2111 8.7467 41.4116 9.24847 41.6124 9.75039C41.745 10.0912 41.8773 10.4322 42.0092 10.7733C42.7261 12.6366 42.7261 12.6366 43.5786 14.4403C44.0612 13.2729 44.5383 12.1036 45.0108 10.9321C45.1719 10.5347 45.3345 10.1378 45.4986 9.74152C45.7354 9.16879 45.9669 8.59414 46.1975 8.01889C46.2708 7.84474 46.3441 7.67058 46.4197 7.49115C46.99 6.04485 46.9308 5.31017 46.9308 3.61006C49.1432 3.61006 51.3557 3.61006 53.6352 3.61006C53.3443 4.12329 53.0535 4.63651 52.7538 5.16529C51.2947 7.84291 50.2564 10.6944 49.1709 13.5377C48.8622 14.3395 48.5528 15.1409 48.2432 15.9423C48.0525 16.4366 47.8625 16.9311 47.6732 17.4258C47.5439 17.7631 47.5439 17.7631 47.4119 18.1072C47.3374 18.3023 47.2629 18.4973 47.1861 18.6983C46.8589 19.5202 46.5057 20.3315 46.1572 21.1447C44.4553 21.1447 42.7534 21.1447 41 21.1447C40.5913 20.1456 40.1831 19.1464 39.7751 18.147C39.6487 17.8379 39.5224 17.5287 39.3922 17.2102C38.6981 15.5099 38.0127 13.8065 37.3405 12.0973C37.2047 11.753 37.0688 11.4088 36.9328 11.0645C36.7364 10.5668 36.5405 10.0688 36.3467 9.57001C36.1653 9.10302 35.9814 8.63699 35.7974 8.17099C35.6939 7.90607 35.5904 7.64114 35.4838 7.36819C34.904 6.0795 34.1987 4.85064 33.522 3.61006Z" fill="#181818"/>
<path d="M89.9937 3.3522C94.0782 3.4373 98.1628 3.52239 102.371 3.61007C99.6699 9.31256 99.6699 9.31256 98.4387 11.7649C98.3124 12.0186 98.186 12.2722 98.0559 12.5335C97.2964 14.0505 96.5049 15.5439 95.6667 17.0189C96.4939 17.0415 97.3211 17.0551 98.1486 17.0672C98.3816 17.0737 98.6146 17.0802 98.8547 17.0869C100.256 17.1022 101.129 16.9602 102.371 16.2453C102.626 16.3729 102.626 16.3729 102.887 16.5031C102.632 18.1199 102.376 19.7367 102.113 21.4025C101.185 21.712 100.756 21.5651 99.7924 21.4025C98.9153 21.3506 98.0379 21.3367 97.1594 21.3209C96.9098 21.3156 96.6601 21.3102 96.4029 21.3047C95.6096 21.2879 94.8162 21.2727 94.0228 21.2575C93.4832 21.2463 92.9437 21.2351 92.4041 21.2237C91.0849 21.1962 89.7657 21.1701 88.4465 21.1447C88.8211 19.9164 89.3305 18.7894 89.9081 17.6464C90.0004 17.4619 90.0927 17.2775 90.1877 17.0874C90.383 16.6977 90.5787 16.3083 90.7749 15.9191C91.0692 15.3352 91.3618 14.7506 91.6542 14.1658C92.7822 11.9154 93.9419 9.68603 95.1509 7.47799C94.5004 7.54437 93.8507 7.61479 93.2009 7.6875C93.0192 7.70562 92.8375 7.72373 92.6504 7.7424C91.3779 7.88899 90.3757 8.21303 89.2201 8.7673C89.2502 8.29978 89.283 7.83244 89.3168 7.36518C89.3348 7.10491 89.3527 6.84464 89.3712 6.57648C89.4997 5.48944 89.7562 4.42074 89.9937 3.3522Z" fill="#181818"/>
<path d="M113.717 5.41514C115.019 6.36201 115.43 7.50841 115.78 9.0252C115.885 10.0913 115.888 11.1456 115.876 12.2162C115.879 12.4895 115.882 12.7627 115.885 13.0442C115.878 14.938 115.818 17.1695 114.677 18.7691C114.014 19.3988 113.449 19.5994 112.556 19.7587C111.428 19.5571 110.763 19.2373 110.107 18.3082C109.231 16.4294 109.264 14.3613 109.253 12.3291C109.251 12.0902 109.25 11.8514 109.248 11.6054C109.271 9.42103 109.441 7.40889 110.88 5.673C111.796 4.94696 112.628 5.12853 113.717 5.41514Z" fill="#FBFBFB"/>
<path d="M58.2767 10.0566C58.7837 10.8172 59.1167 11.5359 59.4693 12.3774C59.5843 12.6486 59.6993 12.9198 59.8178 13.1993C60.0817 13.9245 60.0817 13.9245 60.0817 14.6981C58.8904 14.6981 57.6991 14.6981 56.4717 14.6981C57.0673 13.1664 57.663 11.6347 58.2767 10.0566Z" fill="#F0F0F0"/>
</g>
<defs>
<clipPath id="clip0_2009_449">
<rect width="123" height="25.0126" fill="white"/>
</clipPath>
</defs>
</svg>
